<?xml version="1.0" standalone="no"?>
<!DOCTYPE svg PUBLIC "-//W3C//DTD SVG 20010904//EN"
 "http://www.w3.org/TR/2001/REC-SVG-20010904/DTD/svg10.dtd">
<svg version="1.0" xmlns="http://www.w3.org/2000/svg"
 width="512.000000pt" height="512.000000pt" viewBox="0 0 512.000000 512.000000"
 preserveAspectRatio="xMidYMid meet">
<metadata>
Created by potrace 1.14, written by Peter Selinger 2001-2017
</metadata>
<g transform="translate(0.000000,512.000000) scale(0.100000,-0.100000)"
fill="#000000" stroke="none">
<path d="M0 2560 l0 -2560 2560 0 2560 0 0 2560 0 2560 -2560 0 -2560 0 0
-2560z m2002 1498 c3 -7 128 -454 278 -993 151 -539 275 -982 277 -984 2 -2 5
-2 8 1 4 4 555 1972 555 1984 0 2 127 4 283 4 l282 0 349 -1497 c192 -824 351
-1504 354 -1510 3 -10 -63 -13 -309 -13 l-314 0 -199 1017 c-110 560 -203
1022 -207 1027 -4 5 -12 -9 -18 -30 -5 -22 -127 -481 -270 -1022 -144 -541
-261 -985 -261 -988 0 -2 -111 -3 -247 -2 l-248 3 -272 1019 c-149 560 -274
1021 -277 1024 -3 2 -8 -1 -10 -9 -3 -8 -93 -468 -201 -1024 -108 -555 -198
-1011 -199 -1013 -2 -1 -142 -1 -313 0 l-310 3 349 1495 c192 822 351 1501
353 1508 3 9 69 12 284 12 214 0 280 -3 283 -12z"/>
</g>
</svg>
