<?xml version="1.0" standalone="no"?>
<!DOCTYPE svg PUBLIC "-//W3C//DTD SVG 20010904//EN"
 "http://www.w3.org/TR/2001/REC-SVG-20010904/DTD/svg10.dtd">
<svg version="1.0" xmlns="http://www.w3.org/2000/svg"
 width="512.000000pt" height="512.000000pt" viewBox="0 0 512.000000 512.000000"
 preserveAspectRatio="xMidYMid meet">
<metadata>
Created by potrace 1.14, written by Peter Selinger 2001-2017
</metadata>
<g transform="translate(0.000000,512.000000) scale(0.100000,-0.100000)"
fill="#000000" stroke="none">
<path d="M320 2565 l0 -2235 2235 0 2235 0 0 2235 0 2235 -2235 0 -2235 0 0
-2235z m1729 1458 c6 -21 116 -470 246 -998 129 -528 239 -969 243 -979 6 -14
82 275 263 997 l254 1017 327 0 c302 0 327 -1 332 -17 7 -25 783 -2912 791
-2946 l7 -27 -323 2 -323 3 -228 955 c-125 525 -235 988 -244 1029 -10 45 -19
68 -24 60 -4 -8 -121 -472 -260 -1031 l-252 -1018 -309 0 c-170 0 -309 1 -309
3 0 7 -511 2005 -516 2017 -4 8 -8 10 -10 4 -3 -5 -109 -461 -237 -1012 -129
-551 -236 -1004 -239 -1007 -3 -3 -151 -4 -330 -3 l-325 3 396 1493 395 1492
333 0 332 0 10 -37z"/>
</g>
</svg>
